<svg width="400" height="400" viewBox="0 0 400 400" fill="none" xmlns="http://www.w3.org/2000/svg">
<rect width="400" height="400" rx="90" fill="white"/>
<path d="M72.3066 209.42C71.8613 208.998 71.5273 208.523 71.3047 207.996C71.082 207.457 70.9707 206.994 70.9707 206.607C70.9707 206.209 71.0762 205.74 71.2871 205.201C71.498 204.662 71.7852 204.041 72.1484 203.338C72.5117 202.623 72.9336 201.85 73.4141 201.018C73.8945 200.174 74.4102 199.324 74.9609 198.469L76.6133 195.92C77.1875 195.088 77.75 194.314 78.3008 193.6C75.957 194.35 74.2168 195.082 73.0801 195.797C71.9551 196.5 71.0879 197.016 70.4785 197.344C69.8691 197.672 69.3652 197.836 68.9668 197.836C68.3105 197.836 67.9824 197.426 67.9824 196.605C67.9824 195.434 68.5918 193.992 69.8105 192.281C71.0762 190.512 72.3828 189.416 73.7305 188.994C75.0898 188.572 76.6016 188.174 78.2656 187.799C79.9414 187.412 81.6816 187.078 83.4863 186.797C87.4004 186.188 91.0391 185.883 94.4023 185.883C98.2461 185.883 100.701 186.246 101.768 186.973C102.717 187.617 103.361 188.508 103.701 189.645C103.865 190.195 103.947 190.787 103.947 191.42C103.947 192.053 103.637 192.715 103.016 193.406C102.406 194.086 101.592 194.73 100.572 195.34C98.6504 196.512 96.1309 197.566 93.0137 198.504C94.7832 198.844 96.0078 199.236 96.6875 199.682C97.3789 200.115 97.8652 200.555 98.1465 201C98.4277 201.434 98.5684 201.99 98.5684 202.67C98.5684 203.338 98.2754 204.029 97.6895 204.744C97.1035 205.459 96.2891 206.127 95.2461 206.748C94.2148 207.369 92.9902 207.932 91.5723 208.436C90.166 208.939 88.6367 209.367 86.9844 209.719C83.5391 210.469 79.9531 210.844 76.2266 210.844C74.6094 210.844 73.3027 210.369 72.3066 209.42ZM82.0977 196.219C80.3398 199.266 79.4609 201.375 79.4609 202.547C79.4609 203.086 79.7422 203.59 80.3047 204.059C80.832 204.504 81.3828 204.727 81.957 204.727C82.5312 204.727 83.1641 204.703 83.8555 204.656C84.5469 204.598 85.2559 204.521 85.9824 204.428C86.709 204.334 87.4238 204.223 88.127 204.094C88.8301 203.965 89.457 203.818 90.0078 203.654C91.2266 203.291 91.8359 202.922 91.8359 202.547C91.8359 201.867 90.8926 201.305 89.0059 200.859C87.4707 200.508 86.0059 200.332 84.6113 200.332C84.0723 200.332 83.6855 200.227 83.4512 200.016C83.2168 199.793 83.0996 199.541 83.0996 199.26C83.0996 198.967 83.2402 198.668 83.5215 198.363C83.8145 198.047 84.207 197.789 84.6992 197.59C88.6836 196.594 92.0117 195.475 94.6836 194.232C95.9961 193.623 96.6523 193.16 96.6523 192.844C96.6523 192.387 96.5176 192.018 96.248 191.736C95.7676 191.232 95.2344 190.98 94.6484 190.98C94.0625 190.98 93.3945 191.004 92.6445 191.051C91.8945 191.098 91.0859 191.168 90.2188 191.262C88.3086 191.449 86.416 191.719 84.541 192.07C84.2715 192.621 83.9141 193.242 83.4688 193.934L82.0977 196.219ZM125.357 201.158C125.357 202.342 125.879 202.934 126.922 202.934C127.965 202.934 129.77 201.932 132.336 199.928L133.883 198.662C134.902 197.818 135.875 197.396 136.801 197.396C137.141 197.396 137.363 197.49 137.469 197.678C137.574 197.854 137.627 198.082 137.627 198.363C137.627 198.633 137.574 198.92 137.469 199.225C137.375 199.518 137.24 199.828 137.064 200.156C136.678 200.895 136.303 201.469 135.939 201.879C135.576 202.289 135.148 202.717 134.656 203.162C134.176 203.596 133.602 204.088 132.934 204.639C132.266 205.178 131.527 205.734 130.719 206.309C129.91 206.871 129.096 207.387 128.275 207.855C126.424 208.934 124.9 209.473 123.705 209.473C122.275 209.473 121.156 208.969 120.348 207.961C119.586 207.023 119.158 205.77 119.064 204.199C116.955 206.367 114.723 208.037 112.367 209.209C110.926 209.924 109.707 210.281 108.711 210.281C107.715 210.281 106.842 210.164 106.092 209.93C105.342 209.684 104.686 209.32 104.123 208.84C102.904 207.82 102.295 206.402 102.295 204.586C102.295 201.984 103.227 199.477 105.09 197.062C105.676 196.312 106.332 195.656 107.059 195.094C108.629 194.109 110.293 193.617 112.051 193.617C112.824 193.617 113.375 193.857 113.703 194.338C113.832 194.525 113.896 194.771 113.896 195.076C113.896 195.369 113.809 195.715 113.633 196.113C113.469 196.5 113.264 196.91 113.018 197.344C112.771 197.766 112.496 198.205 112.191 198.662C111.898 199.119 111.629 199.564 111.383 199.998C110.797 201.029 110.504 201.773 110.504 202.23C110.504 202.676 110.633 203.004 110.891 203.215C111.148 203.426 111.465 203.531 111.84 203.531C112.672 203.531 113.381 203.332 113.967 202.934C114.553 202.523 115.133 202.055 115.707 201.527L117.359 199.91L118.959 198.258C120.096 197.098 120.957 196.377 121.543 196.096C122.141 195.803 122.574 195.691 122.844 195.762C123.113 195.832 123.389 195.961 123.67 196.148C123.951 196.324 124.227 196.541 124.496 196.799C125.129 197.408 125.48 197.959 125.551 198.451C125.574 198.768 125.545 199.242 125.463 199.875C125.393 200.496 125.357 200.924 125.357 201.158ZM154.59 197.59C155.34 197.59 155.715 197.9 155.715 198.521C155.715 199.283 155.258 200.191 154.344 201.246C152.832 203.004 151.051 204.715 149 206.379C145.66 209.051 142.678 210.387 140.053 210.387C138.166 210.387 136.619 209.566 135.412 207.926C134.158 206.215 133.531 203.918 133.531 201.035C133.531 197.25 135.377 193.066 139.068 188.484C141.412 185.566 143.621 183.586 145.695 182.543C146.34 182.215 146.832 182.051 147.172 182.051C147.523 182.051 147.84 182.109 148.121 182.227C148.414 182.332 148.684 182.484 148.93 182.684C149.504 183.164 149.791 183.744 149.791 184.424C149.791 185.104 149.604 185.912 149.229 186.85C148.854 187.775 148.309 188.766 147.594 189.82C146.082 192.059 144.037 194.203 141.459 196.254C140.791 197.531 140.457 199.066 140.457 200.859C140.457 201.668 140.715 202.43 141.23 203.145C141.758 203.859 142.338 204.217 142.971 204.217C143.838 204.217 145.496 203.32 147.945 201.527L151.074 199.119C152.352 198.1 153.523 197.59 154.59 197.59ZM167.598 210.844C165.195 210.844 162.828 209.309 160.496 206.238L158.457 207.75C156.289 209.297 154.848 210.07 154.133 210.07C153.324 210.07 152.574 209.766 151.883 209.156C151.684 208.98 151.537 208.793 151.443 208.594C151.01 208.16 150.793 207.029 150.793 205.201C150.793 203.361 150.998 201.639 151.408 200.033C151.818 198.428 152.352 196.939 153.008 195.568C154.039 193.412 155.639 191.045 157.807 188.467C159.025 186.709 160.52 185.268 162.289 184.143C163.789 183.193 165.043 182.719 166.051 182.719C166.602 182.719 167.064 182.842 167.439 183.088C167.826 183.334 168.02 183.668 168.02 184.09C168.02 184.512 167.855 184.975 167.527 185.479C163.672 191.104 161.445 194.385 160.848 195.322C160.25 196.26 159.828 196.98 159.582 197.484C159.336 197.988 159.154 198.375 159.037 198.645C158.92 198.902 158.809 199.172 158.703 199.453C158.457 200.109 158.334 200.584 158.334 200.877C158.334 201.17 158.557 201.316 159.002 201.316C159.412 201.316 160.484 200.256 162.219 198.135L164.574 195.217C165.441 194.127 166.338 193.377 167.264 192.967C168.201 192.557 169.016 192.352 169.707 192.352C171.664 192.352 172.643 192.826 172.643 193.775C172.643 194.631 171.992 195.832 170.691 197.379C170.551 197.543 170.34 197.766 170.059 198.047L167.703 200.227L166.139 201.615C167.24 202.904 168.324 203.812 169.391 204.34C169.637 204.457 169.842 204.516 170.006 204.516C170.182 204.516 170.492 204.41 170.938 204.199C171.383 203.977 171.881 203.695 172.432 203.355C172.994 203.004 173.586 202.611 174.207 202.178L179.023 198.662C179.445 198.334 179.867 198.17 180.289 198.17C181.168 198.17 181.607 198.533 181.607 199.26C181.607 200.209 181.145 201.316 180.219 202.582C179.938 202.957 179.668 203.273 179.41 203.531L178.285 204.551C175.145 207.469 172.297 209.414 169.742 210.387C168.969 210.691 168.254 210.844 167.598 210.844ZM200.17 201.158C200.17 202.342 200.691 202.934 201.734 202.934C202.777 202.934 204.582 201.932 207.148 199.928L208.695 198.662C209.715 197.818 210.688 197.396 211.613 197.396C211.953 197.396 212.176 197.49 212.281 197.678C212.387 197.854 212.439 198.082 212.439 198.363C212.439 198.633 212.387 198.92 212.281 199.225C212.188 199.518 212.053 199.828 211.877 200.156C211.49 200.895 211.115 201.469 210.752 201.879C210.389 202.289 209.961 202.717 209.469 203.162C208.988 203.596 208.414 204.088 207.746 204.639C207.078 205.178 206.34 205.734 205.531 206.309C204.723 206.871 203.908 207.387 203.088 207.855C201.236 208.934 199.713 209.473 198.518 209.473C197.088 209.473 195.969 208.969 195.16 207.961C194.398 207.023 193.971 205.77 193.877 204.199C191.768 206.367 189.535 208.037 187.18 209.209C185.738 209.924 184.52 210.281 183.523 210.281C182.527 210.281 181.654 210.164 180.904 209.93C180.154 209.684 179.498 209.32 178.936 208.84C177.717 207.82 177.107 206.402 177.107 204.586C177.107 201.984 178.039 199.477 179.902 197.062C180.488 196.312 181.145 195.656 181.871 195.094C183.441 194.109 185.105 193.617 186.863 193.617C187.637 193.617 188.188 193.857 188.516 194.338C188.645 194.525 188.709 194.771 188.709 195.076C188.709 195.369 188.621 195.715 188.445 196.113C188.281 196.5 188.076 196.91 187.83 197.344C187.584 197.766 187.309 198.205 187.004 198.662C186.711 199.119 186.441 199.564 186.195 199.998C185.609 201.029 185.316 201.773 185.316 202.23C185.316 202.676 185.445 203.004 185.703 203.215C185.961 203.426 186.277 203.531 186.652 203.531C187.484 203.531 188.193 203.332 188.779 202.934C189.365 202.523 189.945 202.055 190.52 201.527L192.172 199.91L193.771 198.258C194.908 197.098 195.77 196.377 196.355 196.096C196.953 195.803 197.387 195.691 197.656 195.762C197.926 195.832 198.201 195.961 198.482 196.148C198.764 196.324 199.039 196.541 199.309 196.799C199.941 197.408 200.293 197.959 200.363 198.451C200.387 198.768 200.357 199.242 200.275 199.875C200.205 200.496 200.17 200.924 200.17 201.158ZM214.76 205.605C215.146 205.441 215.686 205.184 216.377 204.832C220.607 202.664 222.928 201.469 223.338 201.246L224.076 200.842C224.838 200.35 225.189 199.963 225.131 199.682C225.002 199.084 224.68 198.844 224.164 198.961C223.648 199.066 223.109 199.213 222.547 199.4C221.996 199.588 221.41 199.816 220.789 200.086C219.488 200.625 218.346 201.164 217.361 201.703C213.916 203.684 211.842 204.885 211.139 205.307C210.635 206.443 210.184 207.574 209.785 208.699L207.658 214.711C206.99 216.574 206.316 217.834 205.637 218.49C205.273 218.854 204.869 219.035 204.424 219.035C203.322 219.035 202.455 218.648 201.822 217.875C201.189 217.113 200.873 216.141 200.873 214.957C200.873 213.785 201.025 212.625 201.33 211.477C201.635 210.34 202.057 209.186 202.596 208.014C203.686 205.646 205.145 203.438 206.973 201.387C208.086 198.398 209.938 195.498 212.527 192.686C214.109 190.975 215.58 189.768 216.939 189.064C217.619 188.713 218.199 188.537 218.68 188.537C219.16 188.537 219.523 188.648 219.77 188.871C220.016 189.082 220.139 189.352 220.139 189.68C220.139 189.996 220.039 190.4 219.84 190.893C219.641 191.385 219.371 191.936 219.031 192.545C218.691 193.154 218.293 193.805 217.836 194.496L216.377 196.623C216.26 196.799 216.201 196.957 216.201 197.098C216.201 197.32 216.336 197.432 216.605 197.432C216.91 197.432 217.473 197.238 218.293 196.852L221.105 195.551C223.566 194.438 225.922 193.881 228.172 193.881C229.344 193.881 230.445 194.438 231.477 195.551C232.52 196.676 233.041 197.883 233.041 199.172C233.041 201.164 232.227 202.699 230.598 203.777L228.418 205.219C227.633 205.711 226.824 206.197 225.992 206.678L223.461 208.066C220.613 209.543 218.41 210.281 216.852 210.281C215.305 210.281 214.18 210.088 213.477 209.701C212.773 209.314 212.422 208.77 212.422 208.066C212.422 207.117 213.201 206.297 214.76 205.605ZM262.502 197.01C263.029 197.01 263.293 197.279 263.293 197.818C263.293 198.674 262.73 199.881 261.605 201.439C260.82 202.529 259.203 204.041 256.754 205.975C253.836 208.26 251.492 209.402 249.723 209.402C248.387 209.402 247.379 208.84 246.699 207.715C246.289 207.035 245.955 206.039 245.697 204.727L244.133 205.852C239.832 208.828 236.621 210.316 234.5 210.316C232.73 210.316 231.312 209.672 230.246 208.383C229.309 207.223 228.84 205.834 228.84 204.217C228.84 202.436 229.449 201.029 230.668 199.998C233.152 197.912 236.24 196.195 239.932 194.848C241.432 194.297 242.381 194.021 242.779 194.021C243.178 194.021 243.541 194.092 243.869 194.232C244.209 194.361 244.543 194.531 244.871 194.742C245.645 195.27 246.031 195.779 246.031 196.271C246.031 196.67 245.785 196.992 245.293 197.238C245.141 197.32 244.883 197.432 244.52 197.572C244.156 197.713 243.711 197.906 243.184 198.152C241.766 198.82 240.383 199.629 239.035 200.578C238.074 201.398 237.594 202.055 237.594 202.547C237.594 203.027 237.934 203.268 238.613 203.268C239.176 203.268 240.301 202.77 241.988 201.773C241.988 201.773 242.486 201.469 243.482 200.859C244.549 200.191 245.404 199.582 246.049 199.031C246.049 199.031 246.318 198.152 246.857 196.395C247.854 193.254 248.961 190.658 250.18 188.607C252.336 184.471 254.504 182.402 256.684 182.402C257.48 182.402 258.113 182.549 258.582 182.842C259.426 183.369 259.848 183.955 259.848 184.6C259.848 185.232 259.73 185.906 259.496 186.621C259.262 187.336 258.951 188.045 258.564 188.748C258.189 189.451 257.756 190.148 257.264 190.84L254.258 194.812C253.754 195.457 253.309 196.084 252.922 196.693C252.242 198.158 251.902 199.412 251.902 200.455C251.902 201.955 252.447 202.705 253.537 202.705C254.158 202.705 255.277 202.055 256.895 200.754L258.969 198.996C259.941 198.129 260.902 197.52 261.852 197.168C262.121 197.062 262.338 197.01 262.502 197.01ZM289.959 196.799C290.334 196.799 290.521 197.115 290.521 197.748C290.521 198.838 289.76 200.25 288.236 201.984L287.234 203.004C284.199 206.039 281.34 208.061 278.656 209.068C276.992 209.689 275.797 209.66 275.07 208.98C274.473 208.406 273.998 207.48 273.646 206.203L273.225 204.674L269.48 206.977L267.318 208.207C264.74 209.613 262.807 210.316 261.518 210.316C259.865 210.316 258.488 209.678 257.387 208.4C256.332 207.193 255.805 205.793 255.805 204.199C255.805 202.629 256.432 201.229 257.686 199.998C259.479 198.24 262.309 196.629 266.176 195.164C269.832 193.793 272.785 193.107 275.035 193.107C275.797 193.107 276.178 193.482 276.178 194.232C276.178 194.748 276.078 195.135 275.879 195.393C275.68 195.65 275.27 195.914 274.648 196.184L272.434 197.133C269.152 198.504 266.75 199.928 265.227 201.404C264.793 201.814 264.576 202.213 264.576 202.6C264.576 202.986 264.887 203.18 265.508 203.18C266.117 203.18 267.535 202.523 269.762 201.211L271.221 200.35C273.482 198.99 275.375 198.311 276.898 198.311C278.188 198.311 279.043 198.879 279.465 200.016C279.57 200.32 279.67 200.631 279.764 200.947C279.857 201.252 279.951 201.527 280.045 201.773C280.256 202.348 280.443 202.635 280.607 202.635C280.783 202.635 281.029 202.553 281.346 202.389C281.662 202.213 282.008 201.996 282.383 201.738C282.77 201.469 283.168 201.176 283.578 200.859L285.705 199.154C287.592 197.584 289.01 196.799 289.959 196.799ZM305.744 197.959C306.893 197.959 307.467 198.357 307.467 199.154C307.467 199.916 306.928 200.9 305.85 202.107L304.988 203.004C303.945 204.07 302.727 205.119 301.332 206.15C299.949 207.182 298.73 207.996 297.676 208.594C295.227 209.953 293.006 210.633 291.014 210.633C289.139 210.633 287.609 210.07 286.426 208.945C285.406 207.973 284.896 206.947 284.896 205.869C284.896 204.791 285.002 203.719 285.213 202.652C285.424 201.586 285.699 200.543 286.039 199.523C286.719 197.449 287.463 195.686 288.271 194.232C288.482 193.834 288.588 193.576 288.588 193.459H286.32C285.465 193.459 284.803 193.26 284.334 192.861C283.865 192.463 283.631 192.012 283.631 191.508C283.631 191.004 283.725 190.635 283.912 190.4C284.1 190.166 284.334 189.996 284.615 189.891C285.014 189.727 285.6 189.645 286.373 189.645L290.68 189.662C290.773 189.627 290.961 189.375 291.242 188.906L292.314 187.061C292.771 186.24 293.229 185.637 293.686 185.25C294.154 184.863 294.699 184.67 295.32 184.67C295.953 184.67 296.48 184.729 296.902 184.846C297.336 184.963 297.699 185.109 297.992 185.285C298.566 185.66 298.854 186.07 298.854 186.516C298.854 186.703 298.789 186.955 298.66 187.271L297.676 189.662L306.025 189.645C306.752 189.645 307.115 190.02 307.115 190.77C307.115 192.551 305.527 193.441 302.352 193.441L295.918 193.459C295.777 193.529 295.537 193.869 295.197 194.479L294.406 195.938C294.207 196.301 294.066 196.576 293.984 196.764L293.598 197.625C292.812 199.395 292.42 200.672 292.42 201.457C292.42 202.242 292.625 202.898 293.035 203.426C293.457 203.953 294.014 204.217 294.705 204.217C295.396 204.217 296.07 204.082 296.727 203.812C297.395 203.543 298.045 203.215 298.678 202.828C299.826 202.113 300.729 201.451 301.385 200.842C302.041 200.232 302.586 199.77 303.02 199.453C303.02 199.453 303.43 199.166 304.25 198.592C304.883 198.17 305.381 197.959 305.744 197.959ZM334.783 196.799C335.158 196.799 335.346 197.115 335.346 197.748C335.346 198.838 334.584 200.25 333.061 201.984L332.059 203.004C329.023 206.039 326.164 208.061 323.48 209.068C321.816 209.689 320.621 209.66 319.895 208.98C319.297 208.406 318.822 207.48 318.471 206.203L318.049 204.674L314.305 206.977L312.143 208.207C309.564 209.613 307.631 210.316 306.342 210.316C304.689 210.316 303.312 209.678 302.211 208.4C301.156 207.193 300.629 205.793 300.629 204.199C300.629 202.629 301.256 201.229 302.51 199.998C304.303 198.24 307.133 196.629 311 195.164C314.656 193.793 317.609 193.107 319.859 193.107C320.621 193.107 321.002 193.482 321.002 194.232C321.002 194.748 320.902 195.135 320.703 195.393C320.504 195.65 320.094 195.914 319.473 196.184L317.258 197.133C313.977 198.504 311.574 199.928 310.051 201.404C309.617 201.814 309.4 202.213 309.4 202.6C309.4 202.986 309.711 203.18 310.332 203.18C310.941 203.18 312.359 202.523 314.586 201.211L316.045 200.35C318.307 198.99 320.199 198.311 321.723 198.311C323.012 198.311 323.867 198.879 324.289 200.016C324.395 200.32 324.494 200.631 324.588 200.947C324.682 201.252 324.775 201.527 324.869 201.773C325.08 202.348 325.268 202.635 325.432 202.635C325.607 202.635 325.854 202.553 326.17 202.389C326.486 202.213 326.832 201.996 327.207 201.738C327.594 201.469 327.992 201.176 328.402 200.859L330.529 199.154C332.416 197.584 333.834 196.799 334.783 196.799Z" fill="black"/>
</svg>
